:version 1.10
:name ASF
:units
  mass 1
  length 1
  angle deg
:documentation
  ASF file generated by Kaydara
:root
  axis xyz
  order  tx ty tz rx ry rz
  position 0 0 0
  orientation 0 0 0
:bonedata
  begin
    id 1
    name RightUpLegDummy
    direction -1 2.30186e-007 8.31532e-007
    length 4.46685
    axis 0 0 0 xyz
  end
  begin
    id 2
    name RightUpLeg
    direction -2.30187e-007 -1 1.24343e-010
    length 16.4045
    axis -3.49089 -0.000906625 0.000286804 xyz
    dof rx ry rz
  end
  begin
    id 3
    name RightLeg
    direction -2.30181e-007 -1 -4.17157e-009
    length 17.5097
    axis 3.68512 0.0193738 -0.131023 xyz
    dof rx ry rz
  end
  begin
    id 4
    name RightFoot
    direction 8.31421e-007 -4.51202e-011 1
    length 6.49508
    axis 4.81691e-005 -0.120479 -0.188788 xyz
    dof rx ry rz
  end
  begin
    id 5
    name RightToes
    direction 0.00124746 -0.014064 0.9999
    length 3.85082
    axis 0.000481921 0.542163 -0.142578 xyz
    dof rx ry rz
  end
  begin
    id 6
    name SpineDummy
    direction 0.0717043 0.9409 -0.331007
    length 10.0032
    axis 0 0 0 xyz
  end
  begin
    id 7
    name Spine
    direction 2.30186e-007 1 4.58806e-011
    length 9.84055
    axis -0.001389 0.000121418 2.40972e-006 xyz
    dof rx ry rz
  end
  begin
    id 8
    name Spine1
    direction 0 0 0
    length 0
    axis -0.001389 0.000121451 1.30017e-006 xyz
    dof rx ry rz
  end
  begin
    id 9
    name HEadDummy
    direction -0.00347485 0.950688 -0.310128
    length 8.00997
    axis -0.001389 0.000121451 1.30017e-006 xyz
  end
  begin
    id 10
    name HEad
    direction -0.0222688 0.980941 0.193023
    length 5.12695
    axis -0.001389 0.000121451 1.30017e-006 xyz
    dof rx ry rz
  end
  begin
    id 11
    name LeftShoulder1Dummy
    direction 0.988871 0.146793 -0.0242004
    length 3.5792
    axis -0.001389 0.000121451 1.30017e-006 xyz
  end
  begin
    id 12
    name LeftShoulder1
    direction 0.993832 0.108932 0.020779
    length 4.16823
    axis -0.001389 0.000121451 1.30017e-006 xyz
    dof rx ry rz
  end
  begin
    id 13
    name LeftArm
    direction 1 3.44807e-006 -8.31404e-007
    length 9.91437
    axis -23.1894 0.134784 0.967509 xyz
    dof rx ry rz
  end
  begin
    id 14
    name LeftForeArm
    direction 1 3.44842e-006 -8.31581e-007
    length 9.08575
    axis -9.91835 -0.06569 -0.177793 xyz
    dof rx ry rz
  end
  begin
    id 15
    name LeftHand
    direction 0.992938 -0.0411636 0.11126
    length 5.32135
    axis -0.00960232 -0.00340091 0.185173 xyz
    dof rx ry rz
  end
  begin
    id 16
    name RightShoulderDummy
    direction -0.988871 0.146793 -0.0241962
    length 3.5792
    axis -0.001389 0.000121451 1.30017e-006 xyz
  end
  begin
    id 17
    name RightShoulder
    direction -0.993832 0.108933 0.0207785
    length 4.16823
    axis 0.215806 0.000203643 -0.0068026 xyz
    dof rx ry rz
  end
  begin
    id 18
    name RightArm
    direction -1 3.90912e-006 8.31284e-007
    length 9.91437
    axis -23.2009 -0.134239 -0.964101 xyz
    dof rx ry rz
  end
  begin
    id 19
    name RightForeArm
    direction -1 3.90882e-006 8.31502e-007
    length 9.08575
    axis -9.92322 0.0658061 0.178867 xyz
    dof rx ry rz
  end
  begin
    id 20
    name RightHand
    direction -0.992843 -0.0414603 0.112003
    length 5.28593
    axis -0.00960638 0.00330671 -0.185228 xyz
    dof rx ry rz
  end
  begin
    id 21
    name LeftUpLegDummy
    direction 1 -2.30186e-007 -8.31532e-007
    length 4.46685
    axis 0 0 0 xyz
  end
  begin
    id 22
    name LeftUpLeg
    direction -2.30187e-007 -1 6.00931e-010
    length 16.4045
    axis -3.48766 0.00143442 -0.000524262 xyz
    dof rx ry rz
  end
  begin
    id 23
    name LeftLeg
    direction -2.30187e-007 -1 1.6669e-009
    length 17.5097
    axis 3.68178 -0.00654042 -0.000285133 xyz
    dof rx ry rz
  end
  begin
    id 24
    name LeftFoot
    direction 8.31532e-007 -4.54478e-011 1
    length 6.49508
    axis 1.87233e-006 4.66016e-005 -8.6538e-006 xyz
    dof rx ry rz
  end
  begin
    id 25
    name LeftToes
    direction 0.00818058 -0.00485161 0.999955
    length 3.85048
    axis 1.06247e-005 4.65869e-005 -8.65513e-006 xyz
    dof rx ry rz
  end
:hierarchy
  begin
    root RightUpLegDummy SpineDummy LeftUpLegDummy
    RightUpLegDummy RightUpLeg
    RightUpLeg RightLeg
    RightLeg RightFoot
    RightFoot RightToes
    SpineDummy Spine
    Spine Spine1
    Spine1 HEadDummy LeftShoulder1Dummy RightShoulderDummy
    HEadDummy HEad
    LeftShoulder1Dummy LeftShoulder1
    LeftShoulder1 LeftArm
    LeftArm LeftForeArm
    LeftForeArm LeftHand
    RightShoulderDummy RightShoulder
    RightShoulder RightArm
    RightArm RightForeArm
    RightForeArm RightHand
    LeftUpLegDummy LeftUpLeg
    LeftUpLeg LeftLeg
    LeftLeg LeftFoot
    LeftFoot LeftToes
  end

:SAMPLES-PER-SECOND 30
:FULLY-SPECIFIED
:DEGREES
158
root  16.4931 33.1243 18.9552 3.45436 66.2276 -2.02864
RightUpLeg  -2.2251 -9.11704 3.47591
RightLeg  14.4212 -11.7756 -2.21225
RightFoot  -9.0489 0.12147 1.91266
RightToes  -19.1341 -0.0766846 -0.169824
Spine  6.02411 2.5085 0.0286583
Spine1  11.8582 5.10963 0.147195
HEad  40.827 -9.28733 4.18476
LeftShoulder1  0 -2.42657e-020 -4.95415e-022
LeftArm  -57.2812 42.2488 -100.156
LeftForeArm  152.823 -55.8724 -164.532
LeftHand  0.157721 -2.71161 -7.04448
RightShoulder  0 2.42657e-020 1.07489e-018
RightArm  -24.4474 -30.0172 78.4611
RightForeArm  37.917 60.9301 18.5792
RightHand  0.29688 22.8882 1.83697
LeftUpLeg  -25.4417 -16.0325 -3.94655
LeftLeg  40.8588 3.11668 2.35573
LeftFoot  -10.1125 -0.0598357 -0.676278
LeftToes  -12.8545 2.37847e-007 4.89147e-008
159
root  16.9401 33.0554 19.9571 3.91406 63.7343 -1.21793
RightUpLeg  0.321626 -7.88727 3.89881
RightLeg  12.3925 -10.6901 -1.62382
RightFoot  -9.45293 0.116759 1.78979
RightToes  -18.635 -0.073981 -0.165758
Spine  6.06962 3.20091 -0.216637
Spine1  11.941 6.54742 -0.29185
HEad  40.7089 -9.47201 4.34221
LeftShoulder1  0 -2.42657e-020 -4.95415e-022
LeftArm  -57.5863 42.007 -98.759
LeftForeArm  157.514 -52.3761 -166.395
LeftHand  0.140716 -3.98461 -4.42113
RightShoulder  0 2.42657e-020 1.07489e-018
RightArm  -23.5782 -30.0407 76.8605
RightForeArm  37.7907 61.7954 19.2892
RightHand  0.242631 22.6008 1.58461
LeftUpLeg  -27.0365 -18.6554 -6.38995
LeftLeg  37.1323 2.59446 1.70809
LeftFoot  -8.59443 -0.0335876 -0.446998
LeftToes  -12.4345 2.37847e-007 4.89147e-008
160
root  17.3724 32.9366 21.0229 3.66486 59.7693 -1.15468
RightUpLeg  2.56639 -5.84195 4.583
RightLeg  11.054 -9.14587 -1.1746
RightFoot  -9.90428 0.104437 1.58293
RightToes  -18.3342 -0.0723686 -0.165821
Spine  6.16888 4.17019 -0.505378
Spine1  12.1001 8.56604 -0.815819
HEad  40.6857 -8.5947 4.45177
LeftShoulder1  0 -2.42657e-020 -4.95415e-022
LeftArm  -57.1016 40.9213 -96.6126
LeftForeArm  163.115 -49.6776 -167.632
LeftHand  0.113203 -5.82382 -2.59827
RightShoulder  0 2.42657e-020 1.07489e-018
RightArm  -22.2118 -28.2215 75.5399
RightForeArm  36.5324 61.1963 18.7941
RightHand  0.225173 22.4142 1.50686
LeftUpLeg  -28.4587 -17.9081 -8.02307
LeftLeg  32.7256 2.38266 1.31838
LeftFoot  -6.82158 -0.0176846 -0.296729
LeftToes  -11.2754 2.37847e-007 4.89147e-008
161
root  17.8212 32.7537 22.1177 3.4234 55.7735 -1.35797
RightUpLeg  4.64377 -4.30169 5.17658
RightLeg  9.95871 -6.91595 -0.756056
RightFoot  -10.4882 0.0797819 1.24686
RightToes  -18.7228 -0.0694656 -0.166475
Spine  6.23241 4.82971 -0.76795
Spine1  12.1627 9.98897 -1.3532
HEad  40.8902 -6.54313 4.17515
LeftShoulder1  0 -2.42657e-020 -4.95415e-022
LeftArm  -56.1227 39.3541 -94.4637
LeftForeArm  168.7 -47.8385 -168.395
LeftHand  0.0327235 -7.71735 -0.855879
RightShoulder  0 2.42657e-020 1.07489e-018
RightArm  -20.3123 -24.6151 74.6949
RightForeArm  34.1677 59.3609 17.3947
RightHand  0.230842 22.0822 1.55346
LeftUpLeg  -29.9782 -15.2137 -9.25736
LeftLeg  28.1388 1.76362 0.798502
LeftFoot  -4.42875 -0.00415614 -0.107493
LeftToes  -11.781 2.37847e-007 4.89147e-008
162
root  18.2979 32.5381 23.2477 3.28313 52.1651 -1.63512
RightUpLeg  6.6394 -2.03614 6.06069
RightLeg  9.14965 -5.90588 -0.56184
RightFoot  -11.1459 0.0718102 1.11356
RightToes  -18.5139 -0.0658463 -0.164767
Spine  6.26133 5.15101 -1.0456
Spine1  12.1226 10.757 -1.97046
HEad  41.4615 -3.76162 3.82776
LeftShoulder1  0 -2.42657e-020 -4.95415e-022
LeftArm  -53.8064 37.3452 -91.915
LeftForeArm  173.796 -47.2356 -168.632
LeftHand  -0.0107222 -9.45247 -0.240442
RightShoulder  0 2.42657e-020 1.07489e-018
RightArm  -18.6465 -19.6539 74.9746
RightForeArm  31.7099 56.1117 15.2754
RightHand  0.251106 21.8708 1.67008
LeftUpLeg  -31.5871 -12.4541 -10.0396
LeftLeg  24.0621 1.23527 0.455975
LeftFoot  -1.58345 0.000400877 0.0289998
LeftToes  -8.31296 2.37847e-007 4.89147e-008
163
root  18.8222 32.2935 24.4188 3.27187 48.5818 -1.85536
RightUpLeg  8.889 0.736087 7.03069
RightLeg  8.15842 -5.44148 -0.423034
RightFoot  -11.9008 0.0732047 1.07995
RightToes  -17.081 -0.0630118 -0.152948
Spine  6.25607 5.31814 -1.34229
Spine1  11.9954 11.2099 -2.60666
HEad  42.44 -0.489893 3.50781
LeftShoulder1  0 -2.42657e-020 -4.95415e-022
LeftArm  -49.873 34.9134 -89.0554
LeftForeArm  -179.507 -48.8097 -167.996
LeftHand  -0.16985 -11.4207 1.32929
RightShoulder  0 2.42657e-020 1.07489e-018
RightArm  -17.4116 -13.7477 76.4704
RightForeArm  29.6863 51.2415 12.7215
RightHand  0.225672 21.6737 1.54931
LeftUpLeg  -33.0962 -9.01241 -10.7167
LeftLeg  20.908 0.811742 0.249194
LeftFoot  0.136953 -0.00011297 0.0945182
LeftToes  -7.33194 2.37847e-007 4.89147e-008
164
root  19.404 32.0316 25.6284 3.49307 45.0306 -1.73248
RightUpLeg  11.0335 3.46477 7.77421
RightLeg  7.87073 -5.26695 -0.382926
RightFoot  -12.6989 0.0810135 1.10565
RightToes  -16.4297 -0.0624628 -0.147515
Spine  6.27834 5.42036 -1.80181
Spine1  11.8777 11.5357 -3.48442
HEad  43.4916 2.83207 3.44979
LeftShoulder1  0 -2.42657e-020 -4.95415e-022
LeftArm  -44.0766 31.9052 -85.8273
LeftForeArm  -172.664 -53.3849 -165.886
LeftHand  -0.629672 -12.7946 5.24447
RightShoulder  0 2.42657e-020 1.07489e-018
RightArm  -16.9563 -7.10877 79.4139
RightForeArm  28.0258 43.8892 9.77892
RightHand  0.150475 21.6473 1.15738
LeftUpLeg  -34.5007 -6.10896 -11.039
LeftLeg  19.422 0.0816359 0.0207165
LeftFoot  0.809955 -0.000879734 0.124453
LeftToes  -9.47917 2.37847e-007 4.89147e-008
165
root  20.0447 31.6918 26.8341 3.86485 42.4526 -1.48146
RightUpLeg  12.0843 5.04199 8.20728
RightLeg  9.90236 -4.78047 -0.518312
RightFoot  -14.0674 0.0832643 1.05245
RightToes  -17.3391 -0.0671272 -0.155091
Spine  6.52366 5.5042 -2.24681
Spine1  11.9878 12.2466 -4.77774
HEad  44.4254 5.98677 3.4893
LeftShoulder1  0 -2.42657e-020 -4.95415e-022
LeftArm  -36.998 27.2973 -82.7694
LeftForeArm  -167.898 -62.8324 -159.489
LeftHand  -1.5424 -13.5078 12.6056
RightShoulder  0 2.42657e-020 1.07489e-018
RightArm  -17.4918 -0.824027 83.1268
RightForeArm  28.2574 35.7417 7.29073
RightHand  -0.00149472 21.9732 0.362416
LeftUpLeg  -36.5968 -6.28724 -10.1525
LeftLeg  21.6249 0.458617 0.145937
LeftFoot  1.53972 -0.00299739 0.223055
LeftToes  -8.92349 2.37847e-007 4.89147e-008
166
root  20.7448 31.3293 28.0255 4.37242 40.8416 -1.22641
RightUpLeg  12.3593 5.90059 8.44636
RightLeg  13.3478 -4.20992 -0.714798
RightFoot  -15.3393 0.0759232 0.941377
RightToes  -20.1225 -0.0821427 -0.177806
Spine  6.90648 5.68421 -2.5638
Spine1  12.2234 13.2852 -6.06744
HEad  45.0894 8.46386 3.30975
LeftShoulder1  0 -2.42657e-020 -4.95415e-022
LeftArm  -29.2864 20.0381 -80.6692
LeftForeArm  170.611 -77.6242 -125.746
LeftHand  -2.61645 -12.0566 24.0479
RightShoulder  0 2.42657e-020 1.07489e-018
RightArm  -19.9703 3.97251 86.9467
RightForeArm  31.0271 30.1445 5.87154
RightHand  -0.203542 22.3746 -0.659309
LeftUpLeg  -38.5128 -7.98647 -8.91929
LeftLeg  26.1589 2.29988 0.948055
LeftFoot  0.596364 -0.00177512 0.341079
LeftToes  -7.67097 2.37847e-007 4.89147e-008
167
root  21.5044 31.0127 29.1835 5.60802 40.0224 -0.481384
RightUpLeg  11.6145 5.17593 7.57487
RightLeg  17.8154 -2.3298 -0.586584
RightFoot  -15.9661 0.00992521 0.448342
RightToes  -25.6182 -0.114941 -0.220388
Spine  7.10526 5.82391 -2.88561
Spine1  12.0833 14.1953 -7.35446
HEad  45.9273 10.0468 2.69075
LeftShoulder1  0 -2.42657e-020 -4.95415e-022
LeftArm  -23.8881 9.12244 -80.5629
LeftForeArm  76.4588 -67.6615 -25.4417
LeftHand  -2.41118 -11.3481 23.5621
RightShoulder  0 2.42657e-020 1.07489e-018
RightArm  -24.6085 7.66552 90.5658
RightForeArm  34.7708 24.3809 4.57334
RightHand  -0.410954 22.5445 -1.69206
LeftUpLeg  -39.8693 -8.44017 -9.3856
LeftLeg  31.1412 6.79129 3.51269
LeftFoot  -0.541038 0.00174374 0.369308
LeftToes  2.33722 2.37847e-007 4.89147e-008
168
root  22.272 30.7015 30.2549 6.56938 40.866 -0.165176
RightUpLeg  9.52584 2.0793 6.3099
RightLeg  24.4725 1.11069 0.417603
RightFoot  -14.87 -0.107681 -0.447611
RightToes  -35.8795 -0.186432 -0.290683
Spine  7.42214 5.51487 -2.98709
Spine1  12.1384 14.1178 -8.02829
HEad  46.6028 11.2321 1.79231
LeftShoulder1  0 -2.42657e-020 -4.95415e-022
LeftArm  -21.6826 -4.63533 -82.314
LeftForeArm  63.2489 -37.7367 -7.78462
LeftHand  -1.639 -12.2511 14.8218
RightShoulder  0 2.42657e-020 1.07489e-018
RightArm  -30.8524 10.8209 93.3079
RightForeArm  38.0801 18.7378 3.41607
RightHand  -0.393525 22.3667 -1.62072
LeftUpLeg  -42.0419 -10.302 -9.46066
LeftLeg  37.4953 7.14421 4.75685
LeftFoot  -1.2717 0.00462258 0.416506
LeftToes  4.0189 2.37847e-007 4.89147e-008
169
root  23.1753 30.246 31.3764 6.54214 42.0732 -0.912506
RightUpLeg  6.22933 -2.87461 4.58065
RightLeg  34.5724 6.59376 3.91688
RightFoot  -11.7752 -0.197378 -1.5364
RightToes  -49.3054 -0.296751 -0.361434
Spine  8.54576 3.78507 -2.95809
Spine1  13.6034 10.1966 -6.12545
HEad  47.5361 11.4658 1.32573
LeftShoulder1  0 -2.42657e-020 -4.95415e-022
LeftArm  -23.3539 -16.199 -84.0571
LeftForeArm  69.513 -16.9777 -3.01254
LeftHand  0.180784 -14.166 -1.8257
RightShoulder  0 2.42657e-020 1.07489e-018
RightArm  -38.0313 15.5033 95.1133
RightForeArm  43.3824 12.7889 2.27717
RightHand  -0.670542 21.6408 -3.13816
LeftUpLeg  -44.1058 -11.8684 -9.34274
LeftLeg  44.3779 5.92595 5.06792
LeftFoot  -2.09489 0.009118 0.498691
LeftToes  11.706 2.37847e-007 4.89147e-008
170
root  24.1165 30.062 32.4763 5.76097 42.1721 -1.70058
RightUpLeg  2.98762 -5.86039 2.54844
RightLeg  45.3224 10.7937 9.42601
RightFoot  -5.09005 -0.0621153 -1.01999
RightToes  -59.6488 -0.391234 -0.397303
Spine  9.12225 3.04723 -2.6102
Spine1  14.4801 8.7255 -5.36841
HEad  48.135 12.8045 0.562668
LeftShoulder1  0 -2.42657e-020 -4.95415e-022
LeftArm  -19.247 -21.1566 -85.0748
LeftForeArm  78.8884 -4.76105 -0.754572
LeftHand  1.52741 -12.2597 -14.5287
RightShoulder  0 2.42657e-020 1.07489e-018
RightArm  -45.4977 18.7067 95.4387
RightForeArm  49.499 7.54202 1.316
RightHand  -0.766272 20.6183 -3.84203
LeftUpLeg  -43.7288 -10.7647 -9.74478
LeftLeg  48.9335 4.89261 4.91055
LeftFoot  -6.49506 0.000372003 0.0065471
LeftToes  14.5159 2.37847e-007 4.89147e-008
171
root  25.1604 30.1976 33.4342 6.27034 41.0074 -0.803452
RightUpLeg  -1.73859 -5.66492 -0.402257
RightLeg  56.3699 11.8058 14.9732
RightFoot  3.62465 -0.0469018 1.85939
RightToes  -60.2198 -0.396622 -0.39878
Spine  8.70476 2.77846 -2.37102
Spine1  13.9143 8.43828 -5.90633
HEad  47.9981 15.5021 -1.15684
LeftShoulder1  0 -2.42657e-020 -4.95415e-022
LeftArm  -25.0327 -17.8448 -85.4054
LeftForeArm  74.9298 -3.61142 -0.563379
LeftHand  1.21477 -9.1913 -15.4077
RightShoulder  0 2.42657e-020 1.07489e-018
RightArm  -50.9441 18.7927 95.5905
RightForeArm  54.1879 5.66697 0.974371
RightHand  -0.931208 18.5514 -5.32895
LeftUpLeg  -41.4095 -8.36539 -11.3597
LeftLeg  49.6034 3.9651 4.07723
LeftFoot  -9.36876 -0.0154977 -0.189142
LeftToes  15.8076 2.37847e-007 4.89147e-008
172
root  26.2751 30.4685 34.3627 6.16501 39.4221 -0.480148
RightUpLeg  -7.15626 -3.50157 -2.35654
RightLeg  65.2038 10.2012 17.9848
RightFoot  10.5825 -0.41259 4.82999
RightToes  -55.7645 -0.355008 -0.38584
Spine  8.30974 2.9174 -2.10987
Spine1  13.4303 8.84246 -6.1448
HEad  47.5034 17.6406 -2.86035
LeftShoulder1  0 -2.42657e-020 -4.95415e-022
LeftArm  -31.1511 -12.7906 -85.7571
LeftForeArm  79.2956 -6.70947 -1.09809
LeftHand  0.788717 -8.96572 -10.4124
RightShoulder  0 2.42657e-020 1.07489e-018
RightArm  -54.2376 17.8583 95.434
RightForeArm  54.8616 6.58462 1.13583
RightHand  -1.16228 18.9641 -6.58278
LeftUpLeg  -38.1805 -6.63614 -12.3169
LeftLeg  49.0907 3.91243 3.9521
LeftFoot  -11.7993 -0.051046 -0.493996
LeftToes  16.854 2.37847e-007 4.89147e-008
